REM DIRINDEX 1\2,1\3,1\4
REM DIRNAME cjc151,folder01,folder02,folder03
TITLE ""
FILE "162 162_Lesson 2_TOEFL_3900.mp3" MP3
  TRACK 01 AUDIO
    TITLE "4:cjc151_7057"
    INDEX 01 00:00:00
  TRACK 02 AUDIO
    TITLE "0:"
    INDEX 01 00:01:46
  TRACK 03 AUDIO
    TITLE "2:cjc151_7058"
    INDEX 01 00:02:24
  TRACK 04 AUDIO
    TITLE "0:"
    INDEX 01 00:03:39
  TRACK 05 AUDIO
    TITLE "3:cjc151_7059"
    INDEX 01 00:05:14
  TRACK 06 AUDIO
    TITLE "0:"
    INDEX 01 00:09:24
  TRACK 07 AUDIO
    TITLE "2:cjc151_7060"
    INDEX 01 00:11:01
  TRACK 08 AUDIO
    TITLE "0:"
    INDEX 01 00:12:46
  TRACK 09 AUDIO
    TITLE "3:cjc151_7061"
    INDEX 01 00:14:23
  TRACK 10 AUDIO
    TITLE "0:"
    INDEX 01 00:18:31
  TRACK 11 AUDIO
    TITLE "2:cjc151_7062"
    INDEX 01 00:20:10
  TRACK 12 AUDIO
    TITLE "0:"
    INDEX 01 00:21:17
  TRACK 13 AUDIO
    TITLE "3:cjc151_7063"
    INDEX 01 00:22:72
  TRACK 14 AUDIO
    TITLE "0:"
    INDEX 01 00:26:28
  TRACK 15 AUDIO
    TITLE "2:cjc151_7064"
    INDEX 01 00:28:06
  TRACK 16 AUDIO
    TITLE "0:"
    INDEX 01 00:29:15
  TRACK 17 AUDIO
    TITLE "3:cjc151_7065"
    INDEX 01 00:30:71
  TRACK 18 AUDIO
    TITLE "0:"
    INDEX 01 00:35:21
  TRACK 19 AUDIO
    TITLE "2:cjc151_7066"
    INDEX 01 00:36:74
  TRACK 20 AUDIO
    TITLE "0:"
    INDEX 01 00:38:16
  TRACK 21 AUDIO
    TITLE "3:cjc151_7067"
    INDEX 01 00:39:68
  TRACK 22 AUDIO
    TITLE "0:"
    INDEX 01 00:44:44
  TRACK 23 AUDIO
    TITLE "2:cjc151_7068"
    INDEX 01 00:46:21
  TRACK 24 AUDIO
    TITLE "0:"
    INDEX 01 00:47:36
  TRACK 25 AUDIO
    TITLE "3:cjc151_7069"
    INDEX 01 00:49:14
  TRACK 26 AUDIO
    TITLE "0:"
    INDEX 01 00:52:51
  TRACK 27 AUDIO
    TITLE "2:cjc151_7070"
    INDEX 01 00:54:29
  TRACK 28 AUDIO
    TITLE "0:"
    INDEX 01 00:55:40
  TRACK 29 AUDIO
    TITLE "3:cjc151_7071"
    INDEX 01 00:57:17
  TRACK 30 AUDIO
    TITLE "0:"
    INDEX 01 01:02:01
  TRACK 31 AUDIO
    TITLE "2:cjc151_7072"
    INDEX 01 01:03:55
  TRACK 32 AUDIO
    TITLE "0:"
    INDEX 01 01:04:62
  TRACK 33 AUDIO
    TITLE "3:cjc151_7073"
    INDEX 01 01:06:42
  TRACK 34 AUDIO
    TITLE "0:"
    INDEX 01 01:09:63
  TRACK 35 AUDIO
    TITLE "2:cjc151_7074"
    INDEX 01 01:11:43
  TRACK 36 AUDIO
    TITLE "0:"
    INDEX 01 01:13:24
  TRACK 37 AUDIO
    TITLE "3:cjc151_7075"
    INDEX 01 01:15:03
  TRACK 38 AUDIO
    TITLE "0:"
    INDEX 01 01:18:66
  TRACK 39 AUDIO
    TITLE "2:cjc151_7076"
    INDEX 01 01:20:42
  TRACK 40 AUDIO
    TITLE "0:"
    INDEX 01 01:22:27
  TRACK 41 AUDIO
    TITLE "3:cjc151_7077"
    INDEX 01 01:24:06
  TRACK 42 AUDIO
    TITLE "0:"
    INDEX 01 01:28:61
  TRACK 43 AUDIO
    TITLE "2:cjc151_7078"
    INDEX 01 01:30:44
  TRACK 44 AUDIO
    TITLE "0:"
    INDEX 01 01:32:27
  TRACK 45 AUDIO
    TITLE "3:cjc151_7079"
    INDEX 01 01:33:74
  TRACK 46 AUDIO
    TITLE "0:"
    INDEX 01 01:38:26
  TRACK 47 AUDIO
    TITLE "2:cjc151_7080"
    INDEX 01 01:40:07
  TRACK 48 AUDIO
    TITLE "0:"
    INDEX 01 01:41:12
  TRACK 49 AUDIO
    TITLE "3:cjc151_7081"
    INDEX 01 01:42:67
  TRACK 50 AUDIO
    TITLE "0:"
    INDEX 01 01:47:46
  TRACK 51 AUDIO
    TITLE "2:cjc151_7082"
    INDEX 01 01:49:26
  TRACK 52 AUDIO
    TITLE "0:"
    INDEX 01 01:50:56
  TRACK 53 AUDIO
    TITLE "3:cjc151_7083"
    INDEX 01 01:52:36
  TRACK 54 AUDIO
    TITLE "0:"
    INDEX 01 01:57:15
  TRACK 55 AUDIO
    TITLE "2:cjc151_7084"
    INDEX 01 01:58:70
  TRACK 56 AUDIO
    TITLE "0:"
    INDEX 01 02:00:04
  TRACK 57 AUDIO
    TITLE "3:cjc151_7085"
    INDEX 01 02:01:56
  TRACK 58 AUDIO
    TITLE "0:"
    INDEX 01 02:06:05
  TRACK 59 AUDIO
    TITLE "2:cjc151_7086"
    INDEX 01 02:07:59
  TRACK 60 AUDIO
    TITLE "0:"
    INDEX 01 02:08:64
  TRACK 61 AUDIO
    TITLE "3:cjc151_7087"
    INDEX 01 02:10:42
  TRACK 62 AUDIO
    TITLE "0:"
    INDEX 01 02:15:21
  TRACK 63 AUDIO
    TITLE "2:cjc151_7088"
    INDEX 01 02:17:38
  TRACK 64 AUDIO
    TITLE "0:"
    INDEX 01 02:18:63
  TRACK 65 AUDIO
    TITLE "3:cjc151_7089"
    INDEX 01 02:20:50
  TRACK 66 AUDIO
    TITLE "0:"
    INDEX 01 02:24:02
  TRACK 67 AUDIO
    TITLE "2:cjc151_7090"
    INDEX 01 02:25:57
  TRACK 68 AUDIO
    TITLE "0:"
    INDEX 01 02:26:48
  TRACK 69 AUDIO
    TITLE "3:cjc151_7091"
    INDEX 01 02:28:28
  TRACK 70 AUDIO
    TITLE "0:"
    INDEX 01 02:32:45
  TRACK 71 AUDIO
    TITLE "2:cjc151_7092"
    INDEX 01 02:34:24
  TRACK 72 AUDIO
    TITLE "0:"
    INDEX 01 02:35:22
  TRACK 73 AUDIO
    TITLE "3:cjc151_7093"
    INDEX 01 02:36:70
  TRACK 74 AUDIO
    TITLE "0:"
    INDEX 01 02:41:52
  TRACK 75 AUDIO
    TITLE "2:cjc151_7094"
    INDEX 01 02:43:31
  TRACK 76 AUDIO
    TITLE "0:"
    INDEX 01 02:44:68
  TRACK 77 AUDIO
    TITLE "3:cjc151_7095"
    INDEX 01 02:46:45
  TRACK 78 AUDIO
    TITLE "0:"
    INDEX 01 02:51:37
  TRACK 79 AUDIO
    TITLE "2:cjc151_7096"
    INDEX 01 02:53:14
  TRACK 80 AUDIO
    TITLE "0:"
    INDEX 01 02:54:02
  TRACK 81 AUDIO
    TITLE "3:cjc151_7097"
    INDEX 01 02:55:54
  TRACK 82 AUDIO
    TITLE "0:"
    INDEX 01 02:59:11
  TRACK 83 AUDIO
    TITLE "2:cjc151_7098"
    INDEX 01 03:00:63
  TRACK 84 AUDIO
    TITLE "0:"
    INDEX 01 03:01:74
  TRACK 85 AUDIO
    TITLE "3:cjc151_7099"
    INDEX 01 03:03:53
  TRACK 86 AUDIO
    TITLE "0:"
    INDEX 01 03:07:61
  TRACK 87 AUDIO
    TITLE "2:cjc151_7100"
    INDEX 01 03:09:50
  TRACK 88 AUDIO
    TITLE "0:"
    INDEX 01 03:10:42
  TRACK 89 AUDIO
    TITLE "3:cjc151_7101"
    INDEX 01 03:12:33
  TRACK 90 AUDIO
    TITLE "0:"
    INDEX 01 03:16:44
